<?xml version="1.0" standalone="no"?><!DOCTYPE svg PUBLIC "-//W3C//DTD SVG 1.1//EN" "http://www.w3.org/Graphics/SVG/1.1/DTD/svg11.dtd"><svg width="213.4765625" height="200" viewBox="0 0 213.4765625 200" version="1.1" xmlns="http://www.w3.org/2000/svg" xmlns:xlink="http://www.w3.org/1999/xlink"><defs><style type="text/css"><![CDATA[
@font-face { font-family: ifont; src: url(http://at.alicdn.com/t/font_1442373896_4754455.eot?#iefix) format(embedded-opentype), url(http://at.alicdn.com/t/font_1442373896_4754455.woff) format(woff), url(http://at.alicdn.com/t/font_1442373896_4754455.ttf) format(truetype), url(http://at.alicdn.com/t/font_1442373896_4754455.svg#ifont) format(svg); }

]]></style></defs><g class="transform-group"><g transform="scale(0.1953125, 0.1953125)"><path d="M666.412698 795.240447 426.817166 795.240447l-117.389771 189.62963c0 10.23398 7.825985 17.457966 17.457966 17.457966l451.499118 0c10.23398 0 17.457966-7.825985 17.457966-17.457966L666.412698 795.240447zM552.634921 186.017637c10.835979 0 19.865961-9.029982 19.865961-19.865961s-9.029982-19.865961-19.865961-19.865961c-10.835979 0-19.865961 9.029982-19.865961 19.865961S541.798942 186.017637 552.634921 186.017637zM552.634921 18.059965C331.701352 18.059965 152.907701 196.853616 152.907701 417.787184c0 220.933568 178.793651 399.727219 399.727219 399.727219 220.933568 0 399.727219-178.793651 399.727219-399.727219C952.36214 196.853616 773.568489 18.059965 552.634921 18.059965zM552.634921 119.797766c25.283951 0 45.751911 21.069959 45.751911 45.751911 0 25.283951-20.46796 45.751911-45.751911 45.751911-25.283951 0-45.751911-20.46796-45.751911-45.751911S527.35097 119.797766 552.634921 119.797766zM552.634921 715.776602c-121.603762 0-219.729571-98.125808-219.729571-219.729571 0-121.603762 98.125808-219.729571 219.729571-219.729571 121.603762 0 219.729571 98.125808 219.729571 219.729571C772.364491 617.650794 674.238683 715.776602 552.634921 715.776602zM552.634921 341.333333c-85.483833 0-154.713698 69.229865-154.713698 154.713698 0 85.483833 69.229865 154.713698 154.713698 154.713698 85.483833 0 154.713698-69.229865 154.713698-154.713698C707.348618 410.563198 638.118754 341.333333 552.634921 341.333333z" fill="#272636"></path></g></g></svg>