<?xml version="1.0" encoding="UTF-8" standalone="no"?>
<svg
   xmlns:dc="http://purl.org/dc/elements/1.1/"
   xmlns:cc="http://creativecommons.org/ns#"
   xmlns:rdf="http://www.w3.org/1999/02/22-rdf-syntax-ns#"
   xmlns:svg="http://www.w3.org/2000/svg"
   xmlns="http://www.w3.org/2000/svg"
   xmlns:sodipodi="http://sodipodi.sourceforge.net/DTD/sodipodi-0.dtd"
   xmlns:inkscape="http://www.inkscape.org/namespaces/inkscape"
   width="200"
   height="200"
   viewBox="0 0 200 200"
   version="1.1"
   id="svg2"
   inkscape:version="0.48.4 r9939"
   sodipodi:docname="overview.svg">
  <metadata
     id="metadata16">
    <rdf:RDF>
      <cc:Work
         rdf:about="">
        <dc:format>image/svg+xml</dc:format>
        <dc:type
           rdf:resource="http://purl.org/dc/dcmitype/StillImage" />
      </cc:Work>
    </rdf:RDF>
  </metadata>
  <sodipodi:namedview
     pagecolor="#ffffff"
     bordercolor="#666666"
     borderopacity="1"
     objecttolerance="10"
     gridtolerance="10"
     guidetolerance="10"
     inkscape:pageopacity="0"
     inkscape:pageshadow="2"
     inkscape:window-width="640"
     inkscape:window-height="480"
     id="namedview14"
     showgrid="false"
     inkscape:zoom="1.18"
     inkscape:cx="100"
     inkscape:cy="100"
     inkscape:window-x="0"
     inkscape:window-y="24"
     inkscape:window-maximized="0"
     inkscape:current-layer="svg2" />
  <defs
     id="defs4">
    <style
       type="text/css"
       id="style6" />
  </defs>
  <g
     class="transform-group"
     id="g8"
     style="fill:#ffffff">
    <g
       transform="scale(0.1953125, 0.1953125)"
       id="g10"
       style="fill:#ffffff">
      <path
         d="M257.762335 361.067674C264.060155 329.745579 269.588876 298.85418 276.730506 268.345133 279.740979 255.485803 284.834609 242.69679 291.255485 231.13394 309.718249 197.864927 344.020052 184.715536 379.561202 198.2297 397.44824 205.032927 413.876189 215.686043 430.919416 224.677906 434.180395 226.396292 437.23921 228.49703 440.697957 230.610953 442.196601 225.438215 443.484292 220.819227 444.86867 216.226609 452.972773 189.325734 469.998421 170.4103 496.77624 161.844738 521.611536 153.903245 546.983004 147.623004 572.112755 140.600034 574.578266 139.910043 577.017408 139.11897 579.395021 138.39382 573.461974 132.179502 568.284841 125.912446 562.259502 120.607863 543.796738 104.351313 524.995571 88.477116 506.352618 72.42273 500.538232 67.416996 494.649133 62.477185 489.067674 57.216549 479.636326 48.325768 476.797253 34.66218 481.565665 22.67303 486.496687 10.279554 497.870558 2.50067 512.030764 2.553408 550.599966 2.689648 588.95382 6.073682 626.279279 15.7863 811.794678 64.054936 938.230112 178.382558 996.444292 360.962197 1086.569476 643.616961 912.058781 942.260189 622.381047 1007.721476 359.982146 1067.01679 94.792515 909.188944 21.679794 650.218026-32.710867 457.560996 30.381597 251.165665 182.887279 122.844841 193.922747 113.558524 207.063348 111.809373 219.026129 118.032481 231.054833 124.290747 236.047382 135.796464 236.064961 150.312652 236.113305 190.626609 225.728275 229.855039 224.453768 269.993202 224.141734 279.872824 223.728618 289.748052 223.280343 299.618884 222.845253 309.221631 226.282026 317.694901 230.804326 325.842953 238.069013 338.944 246.915845 350.827674 257.762335 361.067674L257.762335 361.067674ZM319.843983 383.459433C321.593133 384.246112 322.340258 384.668017 323.14012 384.931708 353.095416 394.947571 383.041923 404.989803 413.036773 414.882609 415.207828 415.59897 417.752446 415.418781 420.108086 415.313305 451.469734 413.915742 482.826987 412.346781 514.19303 411.054695 535.719004 410.166936 552.771021 418.736893 566.206077 435.595536 575.9143 447.77806 586.387227 459.362884 596.719519 471.035605 603.940258 479.192446 613.08594 484.391554 623.853322 486.083571 644.658541 489.348944 665.512103 492.289099 686.352481 495.303966 708.282781 498.477047 730.235056 501.483124 752.152172 504.752893 762.594335 506.313064 768.114266 512.694386 769.74915 523.132155 774.7417 554.990421 773.098026 586.752 761.732944 616.641373 743.740429 663.960721 716.180326 706.392996 685.130712 745.964223 642.641305 800.108773 594.851708 849.682678 545.308567 897.46788 536.479313 905.985099 526.951279 913.85188 517.212292 921.323124 509.222455 927.45394 497.642026 926.504652 493.027433 919.081751 483.7543 904.170026 474.243845 888.779262 474.375691 870.558215 474.542695 847.981871 475.285425 825.291262 477.790489 802.877528 480.814146 775.827227 479.113339 750.038249 467.185717 725.14582 453.724292 697.058335 440.807828 668.702764 427.843021 640.377957 421.817682 627.215382 416.763605 613.859433 414.570575 599.237768 410.149356 569.761511 404.756876 540.421494 399.228155 511.125425 394.762987 487.459159 380.523674 472.437562 357.52982 464.790524 323.614764 453.513339 289.893082 441.651639 256.259296 429.557013 245.373253 425.641202 233.660979 422.011056 224.695485 415.15509 192.920721 390.864755 169.795021 359.591004 161.950215 319.945064 158.399176 302.005288 160.939399 282.799794 161.233854 264.178815 161.387674 254.558489 162.666575 244.951348 163.576309 233.674163 43.482644 382.971605 30.56618 600.956155 146.603399 766.870524 261.814386 931.607073 476.31382 998.874644 665.085803 928.974558 851.480172 859.953442 979.317562 670.715605 952.544137 455.306438 927.515468 253.930026 773.950627 112.908086 609.969991 78.522781 611.345579 80.487279 613.710009 81.498094 615.283365 83.229665 630.454386 99.969648 646.666987 115.936137 660.269047 133.880309 677.321064 156.377545 673.857923 168.212876 648.332635 180.707433 635.785339 186.847039 622.517288 191.861562 609.121785 195.852086 582.009957 203.925425 554.71794 211.471382 527.245734 218.208687 512.382352 221.856412 504.946266 230.211021 502.902661 245.105167 500.423966 263.137236 497.642026 281.182489 493.735004 298.946472 488.764429 321.536 480.735039 325.438627 460.149562 315.229391 445.044464 307.736172 430.65133 298.788258 416.069219 290.262249 400.348841 281.068223 385.076738 271.047966 369.061906 262.412086 351.566009 252.976343 347.373322 254.791416 341.312824 273.966146 337.159691 287.111142 333.784446 300.590146 331.253013 314.139468 326.950455 337.159691 323.59279 360.364498 319.843983 383.459433L319.843983 383.459433ZM707.764189 562.070524C680.66994 558.620567 654.568927 555.258506 628.459124 551.988738 593.155296 547.571914 563.604326 532.603056 540.979639 504.708944 533.925906 496.007142 526.876567 487.27897 519.308635 479.034232 517.102421 476.630249 513.116292 474.56467 509.947605 474.569064 493.045013 474.582249 476.138026 475.28103 459.235433 475.808412 458.031245 475.847966 456.844635 476.388532 455.636052 476.700567 455.710764 477.777305 455.614077 478.462901 455.820635 479.038627 465.823313 507.126112 470.393957 536.360652 474.56467 565.722644 476.770884 581.254043 477.188395 597.071107 484.439897 611.767485 497.057511 637.332326 508.528069 663.464103 520.816069 689.195948 537.810953 724.781047 547.462043 761.623073 541.511416 801.405253 541.058747 804.442094 541.164223 807.562438 541.014798 810.643227 541.590524 810.867365 542.166249 811.091502 542.741974 811.315639 567.603639 783.768721 592.658678 756.397597 617.274232 728.63533 649.840069 691.907571 674.767657 650.090575 697.414318 606.79691 704.705373 592.847657 706.920378 577.82606 707.764189 562.070524L707.764189 562.070524Z"
         fill="#272636"
         id="path12"
         style="fill:#ffffff" />
    </g>
  </g>
</svg>
