<?xml version="1.0" encoding="UTF-8" standalone="no"?>
<svg
   xmlns:dc="http://purl.org/dc/elements/1.1/"
   xmlns:cc="http://creativecommons.org/ns#"
   xmlns:rdf="http://www.w3.org/1999/02/22-rdf-syntax-ns#"
   xmlns:svg="http://www.w3.org/2000/svg"
   xmlns="http://www.w3.org/2000/svg"
   xmlns:sodipodi="http://sodipodi.sourceforge.net/DTD/sodipodi-0.dtd"
   xmlns:inkscape="http://www.inkscape.org/namespaces/inkscape"
   width="200"
   height="200"
   viewBox="0 0 200 200"
   version="1.1"
   id="svg2"
   inkscape:version="0.48.4 r9939"
   sodipodi:docname="geo.svg">
  <metadata
     id="metadata16">
    <rdf:RDF>
      <cc:Work
         rdf:about="">
        <dc:format>image/svg+xml</dc:format>
        <dc:type
           rdf:resource="http://purl.org/dc/dcmitype/StillImage" />
      </cc:Work>
    </rdf:RDF>
  </metadata>
  <sodipodi:namedview
     pagecolor="#ffffff"
     bordercolor="#666666"
     borderopacity="1"
     objecttolerance="10"
     gridtolerance="10"
     guidetolerance="10"
     inkscape:pageopacity="0"
     inkscape:pageshadow="2"
     inkscape:window-width="640"
     inkscape:window-height="480"
     id="namedview14"
     showgrid="false"
     inkscape:zoom="1.18"
     inkscape:cx="100"
     inkscape:cy="100"
     inkscape:window-x="0"
     inkscape:window-y="24"
     inkscape:window-maximized="0"
     inkscape:current-layer="svg2" />
  <defs
     id="defs4">
    <style
       type="text/css"
       id="style6" />
  </defs>
  <g
     class="transform-group"
     id="g8"
     style="fill:#ffffff">
    <g
       transform="scale(0.1953125, 0.1953125)"
       id="g10"
       style="fill:#ffffff">
      <path
         d="M511.990279 958.795952c-15.479553 0-29.91124-7.619538-38.662555-20.397562l-258.299881-362.048803-0.298805-0.473791c-33.29736-52.876278-50.897204-113.341395-50.897204-174.85847 0-185.169303 156.184155-335.814302 348.158445-335.814302 191.985546 0 348.176864 150.653185 348.176864 335.832721 0 61.440327-17.377786 121.559567-50.257637 173.860746l-0.630357 0.942465-258.597663 362.545106C541.953707 951.172321 527.513834 958.795952 511.990279 958.795952zM247.331573 554.694381l257.907954 361.497241 0.135076 0.201591c1.494027 2.208295 3.967358 3.527336 6.615675 3.527336 2.666736 0 5.13802-1.305739 6.611581-3.493567l0.297782-0.430812 258.395048-362.262674c28.78458-45.984311 43.99705-98.772584 43.99705-152.697751 0-163.743318-138.752134-296.956296-309.301462-296.956296-170.539094 0-309.283042 133.206838-309.283042 296.938899C202.707236 455.011055 218.137671 508.140089 247.331573 554.694381zM511.990279 597.198427c-101.345176 0-183.796026-82.46006-183.796026-183.817516 0-101.355409 82.45085-183.814446 183.796026-183.814446 101.356432 0 183.815469 82.459037 183.815469 183.814446C695.805748 514.738367 613.346711 597.198427 511.990279 597.198427zM511.990279 268.441868c-79.908958 0-144.920624 65.018829-144.920624 144.939043 0 79.921237 65.011666 144.943137 144.920624 144.943137 79.920214 0 144.939043-65.021899 144.939043-144.943137C656.929322 333.460698 591.910493 268.441868 511.990279 268.441868z"
         fill="#272636"
         id="path12"
         style="fill:#ffffff" />
    </g>
  </g>
</svg>
