<?xml version="1.0" encoding="UTF-8" standalone="no"?>
<svg
   xmlns:dc="http://purl.org/dc/elements/1.1/"
   xmlns:cc="http://creativecommons.org/ns#"
   xmlns:rdf="http://www.w3.org/1999/02/22-rdf-syntax-ns#"
   xmlns:svg="http://www.w3.org/2000/svg"
   xmlns="http://www.w3.org/2000/svg"
   xmlns:sodipodi="http://sodipodi.sourceforge.net/DTD/sodipodi-0.dtd"
   xmlns:inkscape="http://www.inkscape.org/namespaces/inkscape"
   width="200"
   height="200"
   viewBox="0 0 200 200"
   version="1.1"
   id="svg2"
   inkscape:version="0.48.4 r9939"
   sodipodi:docname="32x32特色.svg">
  <metadata
     id="metadata16">
    <rdf:RDF>
      <cc:Work
         rdf:about="">
        <dc:format>image/svg+xml</dc:format>
        <dc:type
           rdf:resource="http://purl.org/dc/dcmitype/StillImage" />
      </cc:Work>
    </rdf:RDF>
  </metadata>
  <sodipodi:namedview
     pagecolor="#ffffff"
     bordercolor="#666666"
     borderopacity="1"
     objecttolerance="10"
     gridtolerance="10"
     guidetolerance="10"
     inkscape:pageopacity="0"
     inkscape:pageshadow="2"
     inkscape:window-width="640"
     inkscape:window-height="480"
     id="namedview14"
     showgrid="false"
     inkscape:zoom="1.18"
     inkscape:cx="100"
     inkscape:cy="100"
     inkscape:window-x="354"
     inkscape:window-y="259"
     inkscape:window-maximized="0"
     inkscape:current-layer="g8" />
  <defs
     id="defs4">
    <style
       type="text/css"
       id="style6" />
  </defs>
  <g
     class="transform-group"
     id="g8">
    <g
       transform="scale(0.1953125, 0.1953125)"
       id="g10"
       style="fill:#ffffff">
      <path
         d="M798.72 499.931429C767.049143 605.366857 664.283429 694.820571 548.571429 694.820571L548.571429 950.820571 658.285714 950.820571C705.426286 950.820571 768 976.859429 768 1023.963429L554.678857 1023.963429 469.321143 1023.963429 256 1023.963429C256 1023.963429 282.002286 950.820571 329.142857 950.820571L475.428571 950.820571 475.428571 694.820571C359.68 694.820571 256.950857 605.366857 225.28 499.931429 126.390857 446.354286 0 359.204571 0 255.963429 0 172.580571 30.976 145.773714 73.142857 146.249143 114.066286 146.761143 219.428571 146.249143 219.428571 146.249143L219.428571-0.036571 804.571429-0.036571 804.571429 146.249143C804.571429 146.249143 906.605714 146.249143 950.857143 146.249143 992.512 146.249143 1024 170.971429 1024 255.963429 1024 364.434286 897.609143 446.354286 798.72 499.931429ZM213.321143 290.889143C213.321143 290.889143 198.290286 217.380571 128 213.321143 104.118857 211.894857 85.101714 225.609143 85.321143 255.963429 86.016 340.370286 213.321143 383.963429 213.321143 383.963429L213.321143 290.889143ZM731.428571 73.106286 292.571429 73.106286 292.571429 365.714286C291.218286 535.917714 394.166857 621.677714 512 621.677714 629.833143 621.677714 731.428571 531.236571 731.428571 365.714286L731.428571 73.106286ZM896 213.321143C825.673143 216.393143 810.678857 333.568 810.678857 333.568L810.678857 383.963429C810.678857 383.963429 936.813714 339.346286 938.678857 255.963429 939.373714 224.146286 927.853714 211.894857 896 213.321143Z"
         fill="#272636"
         id="path12"
         style="fill:#ffffff" />
    </g>
  </g>
</svg>
